<?xml version="1.0" encoding="iso-8859-1"?>
<svg height="800px" width="800px" version="1.1" id="Capa_1" xmlns="http://www.w3.org/2000/svg" xmlns:xlink="http://www.w3.org/1999/xlink" 
	 viewBox="0 0 58 58" xml:space="preserve">
<g>
	<path style="fill:#ffffff;" d="M0,58l4.988-14.963C2.457,38.78,1,33.812,1,28.5C1,12.76,13.76,0,29.5,0S58,12.76,58,28.5
		S45.24,57,29.5,57c-4.789,0-9.299-1.187-13.26-3.273L0,58z"/>
	
	<path style="fill:#125317;" d="M30,22H16c-0.552,0-1-0.448-1-1s0.448-1,1-1h14c0.552,0,1,0.448,1,1S30.552,22,30,22z"/>
	<path style="fill:#125317;" d="M43,30H16c-0.552,0-1-0.448-1-1s0.448-1,1-1h27c0.552,0,1,0.448,1,1S43.552,30,43,30z"/>
</g>
</svg>